<svg xmlns="http://www.w3.org/2000/svg" xmlns:xlink="http://www.w3.org/1999/xlink" viewBox="3724 -1462.095 2032.695 915.904">
  <defs>
    <pattern id="pattern" preserveAspectRatio="xMidYMid slice" width="100%" height="100%" viewBox="0 0 4749 3166">
      <image xlink:href="img/1.jpg" width="100%" height="100%" />
          </pattern>
  </defs>
  <path fill="url(#img1)" id="Union_3" data-name="Union 3" class="cls-1" d="M1281.411,915.9c-199.053-1.3-171.733-1.3-255-283.618-29.781-101-105.95-125.96-151.562-132.608H783.128V768.891c0,89.769,35.127,127.5,89.769,127.5V915.9H538.539V896.389c55.943,0,87.168-36.428,87.168-135.3V499.678H-642V477.771H625.707V127.5c0-80.662-29.923-107.983-87.168-107.983V0H783.128V477.771H874.2v-.3c111.886-3.9,192.548-28.622,192.548-228.976,0-201.655-83.264-225.073-192.548-228.976V1.3c227.675,3.9,370.785,44.234,370.785,247.19,0,167.829-100.177,223.772-247.19,236.782,84.565-2.6,184.741,29.923,247.19,290.123,26.02,98.876,111.886,118.391,145.712,120.993V915.9Z" transform="translate(4366 -1462.095)"/>
</svg>
